<?xml version="1.0" standalone="no"?>
<!DOCTYPE svg PUBLIC "-//W3C//DTD SVG 20010904//EN"
 "http://www.w3.org/TR/2001/REC-SVG-20010904/DTD/svg10.dtd">
<svg version="1.0" xmlns="http://www.w3.org/2000/svg"
 width="1052.000000pt" height="1052.000000pt" viewBox="0 0 1052.000000 1052.000000"
 preserveAspectRatio="xMidYMid meet">
<metadata>
Created by potrace 1.11, written by Peter Selinger 2001-2013
</metadata>
<g transform="translate(0.000000,1052.000000) scale(0.100000,-0.100000)"
fill="#000000" stroke="none">
<path d="M5926 10443 c-1 -1 -38 -5 -81 -8 -126 -11 -137 -12 -185 -19 -125
-20 -195 -32 -195 -36 0 -1 -9 -3 -20 -5 -11 -1 -49 -10 -85 -20 -36 -9 -88
-22 -117 -30 -28 -7 -57 -17 -65 -21 -7 -5 -20 -10 -29 -11 -55 -9 -380 -143
-526 -217 -39 -20 -75 -36 -82 -36 -6 0 -11 -4 -11 -8 0 -5 -12 -14 -27 -21
-24 -10 -69 -37 -201 -116 -37 -22 -78 -50 -107 -72 -16 -13 -34 -27 -40 -31
-10 -8 -86 -66 -119 -92 -38 -30 -141 -127 -212 -200 -184 -189 -357 -449
-444 -671 -12 -30 -27 -65 -33 -79 -6 -14 -11 -28 -12 -32 -2 -5 -4 -10 -5
-13 -1 -3 -3 -8 -5 -12 -1 -5 -4 -15 -8 -23 -5 -12 -21 -66 -33 -112 -1 -5 -2
-9 -3 -10 -2 -2 -5 -14 -7 -27 -2 -14 -11 -50 -18 -80 -16 -63 -34 -173 -43
-271 -9 -91 -9 -369 1 -465 4 -44 9 -96 11 -115 3 -33 7 -54 20 -110 3 -14 7
-38 9 -55 13 -98 122 -464 172 -580 10 -22 18 -43 18 -46 1 -6 23 -55 78 -177
15 -34 28 -65 28 -68 0 -3 12 -31 26 -62 27 -60 45 -103 46 -112 0 -5 8 -21
44 -90 8 -16 13 -30 11 -30 -3 0 8 -26 24 -57 16 -31 29 -61 29 -66 0 -6 11
-33 24 -61 13 -28 43 -96 66 -151 23 -55 52 -122 65 -150 46 -103 51 -126 33
-139 -13 -10 -88 -78 -263 -241 -17 -16 -76 -70 -130 -120 -53 -49 -112 -103
-129 -120 -18 -16 -84 -77 -146 -135 -62 -58 -128 -118 -145 -135 -30 -28
-152 -140 -304 -280 -100 -92 -360 -353 -418 -420 -106 -124 -155 -183 -167
-204 -5 -9 -12 -18 -15 -21 -23 -19 -170 -233 -215 -314 -16 -28 -32 -53 -36
-56 -3 -3 -15 -21 -24 -40 -83 -163 -129 -257 -130 -266 -1 -7 -6 -18 -12 -25
-6 -8 -21 -45 -34 -84 -12 -38 -26 -74 -30 -80 -6 -9 -30 -84 -35 -110 -2 -5
-12 -45 -25 -88 -12 -44 -19 -81 -16 -84 3 -4 1 -11 -4 -18 -5 -6 -12 -34 -15
-61 -3 -27 -8 -56 -10 -64 -13 -43 -19 -144 -18 -315 0 -218 3 -248 38 -418
14 -66 22 -92 46 -167 36 -111 137 -341 159 -360 3 -3 14 -22 25 -43 11 -20
23 -37 27 -37 5 0 8 -6 8 -13 0 -11 75 -121 105 -153 5 -6 26 -30 45 -54 46
-57 161 -173 230 -232 96 -82 168 -138 179 -138 6 0 11 -3 11 -7 0 -5 37 -30
81 -58 45 -27 96 -60 115 -72 19 -12 34 -20 34 -16 0 3 6 1 13 -5 20 -17 166
-88 260 -127 152 -62 389 -135 527 -161 18 -3 83 -17 90 -19 17 -4 110 -18
135 -20 17 -2 47 -5 67 -9 39 -6 139 -16 223 -21 137 -9 507 -3 600 9 17 3 57
7 90 11 33 3 91 11 129 17 37 5 85 12 105 13 20 2 36 4 36 5 0 1 14 4 30 6 17
3 93 19 170 36 77 17 145 31 150 32 6 1 15 4 20 8 6 3 30 9 54 13 24 4 58 13
75 20 17 7 36 14 41 14 6 1 28 7 50 13 22 6 45 12 50 14 24 6 304 103 336 118
20 8 39 12 43 9 3 -4 6 -1 6 5 0 7 7 12 15 12 7 0 49 15 92 34 72 32 131 57
143 61 13 4 61 25 125 55 39 18 75 33 81 34 7 1 19 8 28 15 9 7 16 11 16 7 0
-3 17 1 38 10 74 31 204 72 262 82 42 7 194 7 220 0 35 -9 80 -30 115 -53 31
-21 125 -115 125 -126 0 -5 8 -16 48 -64 5 -6 11 -15 13 -20 13 -33 82 -145
94 -155 8 -7 15 -17 15 -22 0 -17 94 -130 160 -191 129 -121 296 -198 455
-209 30 -2 175 13 203 21 18 5 33 10 35 10 1 0 15 4 30 10 16 6 34 11 42 11 8
0 16 4 19 9 3 5 17 12 31 15 33 8 166 87 235 139 176 134 289 268 325 384 10
35 13 123 4 129 -4 2 -6 10 -3 17 7 20 -40 129 -89 205 -37 57 -177 233 -222
278 -6 6 -35 39 -65 74 -30 34 -60 68 -65 74 -31 33 -108 151 -130 199 -33 70
-36 86 -39 172 -3 83 36 223 84 305 16 28 33 62 36 75 3 14 9 25 13 25 3 0 15
17 26 38 11 20 33 57 50 82 50 73 156 242 182 288 31 56 92 197 97 227 2 13 9
33 16 44 6 12 8 21 6 21 -3 0 -1 12 5 28 6 15 12 41 14 57 2 17 6 39 8 50 16
74 29 191 28 260 -1 17 0 46 0 65 2 49 -10 251 -15 259 -3 5 -9 39 -21 136 -2
11 -8 40 -15 65 -7 25 -14 56 -17 70 -7 43 -51 187 -62 209 -7 12 -10 21 -7
21 3 0 -2 17 -11 37 -8 21 -20 49 -26 63 -6 14 -11 27 -12 30 -7 24 -45 107
-78 169 -175 340 -408 606 -678 774 -70 43 -194 106 -221 111 -7 2 -26 8 -43
15 -165 68 -385 81 -500 31 -16 -7 -33 -13 -36 -12 -4 1 -24 -16 -46 -36 -45
-42 -77 -97 -69 -118 3 -8 1 -14 -4 -14 -13 0 -4 -87 15 -145 28 -84 65 -138
163 -244 34 -38 79 -92 101 -122 62 -88 155 -282 176 -369 2 -8 13 -47 24 -86
19 -67 31 -121 35 -154 1 -9 5 -20 8 -25 3 -6 9 -39 12 -74 4 -36 9 -67 11
-71 7 -11 19 -208 18 -300 0 -99 -10 -208 -23 -264 -5 -22 -7 -43 -4 -47 2 -4
0 -10 -6 -14 -5 -3 -10 -14 -10 -24 0 -35 -61 -140 -98 -170 -51 -40 -96 -46
-150 -19 -45 21 -167 136 -237 223 -22 27 -47 56 -55 65 -8 9 -26 31 -40 50
-14 18 -50 66 -80 106 -30 40 -62 82 -70 95 -8 12 -30 42 -47 66 -18 24 -33
47 -33 52 0 4 -9 16 -20 26 -11 10 -20 24 -20 32 0 7 -3 13 -8 13 -4 0 -16 17
-27 37 -11 20 -24 41 -30 48 -20 22 -55 74 -55 83 0 4 -8 17 -18 28 -10 10
-21 26 -25 34 -7 16 -27 50 -99 165 -27 41 -48 80 -48 85 0 6 -4 10 -9 10 -5
0 -11 8 -14 18 -3 9 -19 40 -35 67 -97 165 -299 516 -316 550 -12 22 -24 42
-28 43 -5 2 -8 8 -8 13 0 5 -13 30 -28 56 -87 145 -172 292 -172 296 0 2 -22
42 -50 87 l-49 84 22 16 c13 8 32 24 43 35 11 11 49 45 84 75 35 30 77 67 92
83 16 15 31 27 33 27 3 0 20 15 38 33 19 17 56 51 84 74 27 23 63 55 79 70 17
15 57 51 89 80 33 28 80 68 104 90 25 21 56 49 70 61 14 13 53 47 85 75 133
115 178 158 331 312 157 157 211 216 308 339 27 34 56 70 65 82 10 11 22 27
27 36 6 8 43 63 83 121 39 59 72 111 72 117 0 5 3 10 8 10 7 0 26 30 74 120
16 30 32 62 37 70 39 73 50 95 80 162 20 46 42 97 46 108 1 3 8 19 15 35 7 17
15 39 17 49 2 11 8 25 14 33 6 7 8 13 4 13 -4 0 -3 6 3 13 5 6 13 28 17 47 4
19 10 40 13 45 4 6 7 15 9 20 1 6 16 64 32 130 17 66 33 138 36 160 2 22 7 51
10 65 19 87 27 435 13 570 -51 478 -282 915 -638 1205 -25 20 -53 43 -63 51
-9 8 -19 14 -21 14 -2 0 -36 22 -77 48 -147 97 -377 194 -537 227 -9 2 -37 8
-62 13 -42 10 -81 16 -162 27 -87 12 -355 25 -362 18z m319 -1467 c86 -8 215
-58 261 -101 7 -5 20 -17 30 -26 55 -46 125 -153 140 -214 40 -160 40 -291 0
-436 -25 -92 -89 -263 -106 -284 -5 -5 -9 -13 -9 -18 -1 -10 -84 -178 -123
-247 -41 -73 -155 -255 -193 -307 -16 -23 -43 -61 -60 -84 -59 -82 -214 -270
-310 -375 -16 -18 -50 -56 -75 -85 -25 -29 -56 -64 -69 -78 -13 -14 -44 -50
-70 -80 -25 -30 -55 -64 -66 -77 -11 -12 -33 -37 -49 -55 -32 -37 -145 -166
-188 -214 -14 -16 -40 -46 -56 -64 l-30 -35 -10 40 c-6 21 -14 55 -17 74 -9
51 -12 67 -30 155 -10 44 -18 90 -20 102 -2 12 -6 34 -9 50 -4 15 -9 39 -11
53 -3 14 -8 36 -11 50 -3 14 -12 59 -20 100 -7 41 -16 86 -20 100 -3 14 -7 34
-9 45 -2 11 -7 34 -10 50 -57 286 -57 289 -76 435 -16 125 -17 150 -18 300 -1
147 2 197 14 273 12 79 15 92 30 152 9 33 17 68 20 78 2 10 16 48 31 85 95
241 243 410 454 520 70 36 176 77 229 87 12 2 30 6 39 9 22 7 81 15 157 23 33
3 61 6 62 7 4 4 143 -2 198 -8z m-1781 -4490 c60 -35 92 -103 100 -216 4 -49
17 -113 26 -125 4 -5 13 -27 19 -47 7 -20 43 -97 80 -170 91 -177 105 -202
114 -206 4 -2 7 -8 7 -13 0 -5 30 -59 68 -121 37 -62 69 -117 71 -123 2 -5 19
-31 38 -57 18 -27 30 -48 26 -48 -5 0 -3 -4 2 -8 12 -8 55 -69 55 -77 0 -3 16
-28 35 -55 19 -27 35 -54 35 -59 0 -5 3 -11 8 -13 4 -1 25 -31 47 -65 22 -35
43 -63 48 -63 4 0 7 -6 7 -13 0 -7 13 -28 30 -47 16 -19 29 -40 30 -46 0 -6 9
-19 20 -29 11 -10 20 -24 20 -31 0 -7 4 -14 8 -16 8 -3 81 -103 107 -146 6
-10 13 -19 16 -22 3 -3 21 -27 39 -55 19 -27 38 -54 43 -60 18 -22 133 -188
142 -206 5 -10 13 -19 17 -19 5 0 8 -7 8 -15 0 -8 3 -15 8 -15 4 0 23 -25 42
-55 19 -30 38 -55 43 -55 4 0 7 -4 7 -10 0 -5 26 -46 58 -89 31 -44 73 -103
92 -131 19 -28 41 -58 48 -66 7 -8 11 -14 7 -14 -3 0 5 -12 19 -27 14 -15 23
-30 21 -34 -4 -5 -67 -21 -82 -21 -2 0 -29 -6 -61 -13 -33 -8 -70 -16 -83 -19
-13 -3 -39 -9 -58 -15 -18 -6 -36 -10 -40 -9 -3 0 -9 -1 -13 -2 -15 -5 -103
-23 -123 -26 -5 0 -21 -4 -35 -7 -37 -10 -231 -55 -260 -61 -14 -3 -34 -7 -45
-10 -49 -12 -173 -37 -205 -42 -19 -3 -37 -7 -40 -9 -3 -2 -33 -6 -65 -10 -33
-3 -71 -8 -85 -11 -14 -2 -36 -6 -49 -9 -129 -24 -634 -25 -721 0 -8 2 -35 7
-60 10 -112 16 -377 95 -391 117 -3 5 -10 10 -15 10 -27 -1 -181 91 -248 148
-74 62 -165 163 -196 219 -8 14 -17 28 -20 31 -11 9 -70 140 -76 168 -4 15 -9
32 -13 37 -3 6 -6 15 -8 20 -1 6 -4 21 -7 35 -46 201 -34 443 31 660 9 30 17
57 18 60 4 20 29 91 41 117 8 17 14 33 14 36 0 3 10 27 22 54 12 26 22 50 22
53 2 8 81 163 103 200 11 19 29 51 39 70 11 19 21 37 24 40 3 3 26 37 49 75
24 39 48 72 53 73 4 2 8 8 8 13 0 6 4 15 10 22 5 7 40 53 76 102 87 116 97
128 235 265 150 150 327 275 417 295 18 3 34 10 36 13 2 4 36 9 76 10 61 3 77
0 114 -22z"/>
</g>
</svg>
